<svg xmlns="http://www.w3.org/2000/svg" xmlns:xlink="http://www.w3.org/1999/xlink" version="1.1" x="0px" y="0px" viewBox="0 0 60 75" style="enable-background:new 0 0 60 60;" xml:space="preserve"><path d="M6.359436,16.8369751c-0.0664063,0.0734863-0.1203613,0.1538086-0.161438,0.2409668  c-0.0179443,0.0380249-0.0286255,0.0766602-0.0415649,0.1166992c-0.0247192,0.0756836-0.039917,0.1519165-0.0460815,0.2313232  c-0.0019531,0.0252686-0.0146484,0.0480957-0.0146484,0.0736694v33.6503906c0,0.5527344,0.4477539,1,1,1h31.3599854  c1.4713135,0.7835693,3.1474609,1.2314453,4.9276123,1.2314453c5.8012695,0,10.5209961-4.7197266,10.5209961-10.5214844  c0-5.6120605-4.4195557-10.1981201-9.9589844-10.492981V7.619751c0-0.5527344-0.4477539-1-1-1H16.9853516  c-0.0195923,0-0.0371094,0.0101318-0.0565796,0.0112915c-0.0892944,0.0056152-0.1752319,0.0227051-0.2600098,0.0517578  c-0.0337524,0.0114136-0.0664673,0.0202637-0.0987549,0.0351563c-0.0956421,0.0445557-0.1849365,0.1020508-0.2641602,0.1766968  c-0.0080566,0.0075073-0.0192261,0.0102539-0.0270386,0.0180664l-9.8896484,9.8798828  C6.3762817,16.8054199,6.371521,16.8235474,6.359436,16.8369751z M15.9897461,10.0318604v6.4707031H9.5126953L15.9897461,10.0318604  z M51.9042969,42.8599854c0,4.6992188-3.8222656,8.5214844-8.5209961,8.5214844s-8.5214844-3.8222656-8.5214844-8.5214844  s3.8227539-8.5214844,8.5214844-8.5214844S51.9042969,38.1607666,51.9042969,42.8599854z M41.9453125,32.4486084  c-5.1220093,0.704834-9.0834961,5.0986328-9.0834961,10.411377c0,2.829895,1.128418,5.3971558,2.9520264,7.2900391H8.0957031  V18.5025635h8.894043c0.5522461,0,1-0.4472656,1-1V8.619751h23.9555664V32.4486084z"/><path d="M15.1464844,22.9625244c-0.5522461,0-1,0.4472656-1,1s0.4477539,1,1,1h19.7485352c0.5522461,0,1-0.4472656,1-1  s-0.4477539-1-1-1H15.1464844z"/><path d="M34.8950195,29.0699463H15.1464844c-0.5522461,0-1,0.4472656-1,1s0.4477539,1,1,1h19.7485352c0.5522461,0,1-0.4472656,1-1  S35.4472656,29.0699463,34.8950195,29.0699463z"/><path d="M27.5151367,35.1763916H15.1464844c-0.5522461,0-1,0.4472656-1,1s0.4477539,1,1,1h12.3686523c0.5522461,0,1-0.4472656,1-1  S28.0673828,35.1763916,27.5151367,35.1763916z"/><path d="M27.5151367,41.2828369H15.1464844c-0.5522461,0-1,0.4472656-1,1s0.4477539,1,1,1h12.3686523c0.5522461,0,1-0.4472656,1-1  S28.0673828,41.2828369,27.5151367,41.2828369z"/><path d="M42.3833008,39.1099854v2.75h-2.75c-0.5522461,0-1,0.4472656-1,1s0.4477539,1,1,1h2.75v2.75c0,0.5527344,0.4477539,1,1,1  s1-0.4472656,1-1v-2.75h2.75c0.5522461,0,1-0.4472656,1-1s-0.4477539-1-1-1h-2.75v-2.75c0-0.5527344-0.4477539-1-1-1  S42.3833008,38.557251,42.3833008,39.1099854z"/></svg>